<svg xmlns="http://www.w3.org/2000/svg" version="1.0" width="800.000000pt" height="800.000000pt" viewBox="0 0 800.000000 800.000000" preserveAspectRatio="xMidYMid meet">

<g transform="translate(0.000000,800.000000) scale(0.100000,-0.100000)" fill="#a7a7a7" stroke="none">
<path d="M6919 7657 c-106 -30 -193 -107 -229 -204 -18 -47 -20 -78 -20 -253 l0 -199 -212 -3 c-203 -3 -215 -4 -263 -28 -233 -114 -261 -430 -51 -575 78 -53 139 -65 348 -65 l177 0 3 -212 c3 -201 4 -216 27 -261 30 -62 97 -128 158 -158 40 -20 63 -24 143 -24 80 0 103 4 143 24 61 30 128 96 158 158 23 45 24 60 27 261 l3 212 177 0 c209 0 270 12 348 65 170 117 191 358 44 505 -25 25 -67 57 -95 70 -48 24 -60 25 -262 28 l-213 3 0 199 c0 176 -2 206 -20 254 -57 150 -240 246 -391 203z" fill="#a7a7a7"/>
<path d="M3725 7323 c-957 -86 -1811 -558 -2385 -1318 -348 -460 -563 -984 -647 -1578 -25 -174 -25 -680 0 -854 40 -287 107 -542 203 -787 468 -1182 1548 -1992 2812 -2106 169 -16 574 -7 730 14 907 128 1689 589 2238 1321 282 377 496 852 588 1310 53 259 61 348 60 680 0 271 -3 328 -22 455 -26 168 -62 332 -100 463 l-27 92 -40 -5 c-102 -13 -281 -3 -370 19 -104 27 -245 90 -336 152 -82 55 -193 166 -248 248 -46 68 -131 238 -131 263 0 10 -27 25 -74 42 -227 83 -435 275 -542 501 -106 224 -127 447 -63 690 11 43 21 83 22 89 3 13 -198 98 -358 151 -230 77 -479 129 -734 155 -95 9 -483 11 -576 3z m-713 -2022 c124 -48 242 -165 289 -289 30 -80 37 -228 14 -307 -42 -145 -129 -252 -259 -315 -201 -98 -419 -64 -575 91 -155 156 -189 374 -91 575 61 125 159 209 300 256 77 25 241 20 322 -11z m2289 13 c141 -42 247 -130 309 -258 62 -127 71 -228 33 -366 -63 -231 -308 -387 -549 -350 -192 29 -352 170 -408 359 -33 111 -15 269 42 375 35 65 133 163 198 198 106 57 264 75 375 42z m220 -2007 c53 -36 79 -82 79 -142 0 -42 -7 -63 -42 -121 -215 -359 -583 -651 -987 -784 -212 -70 -314 -85 -571 -85 -258 0 -359 15 -573 85 -401 132 -771 426 -985 784 -35 58 -42 79 -42 121 0 60 26 106 79 142 l34 23 1487 0 1487 0 34 -23z" fill="#a7a7a7"/>
</g>
</svg>