<?xml version="1.0" standalone="no"?>
<!DOCTYPE svg PUBLIC "-//W3C//DTD SVG 20010904//EN"
 "http://www.w3.org/TR/2001/REC-SVG-20010904/DTD/svg10.dtd">
<svg version="1.0" xmlns="http://www.w3.org/2000/svg"
 width="472.000000pt" height="472.000000pt" viewBox="0 0 472.000000 472.000000"
 preserveAspectRatio="xMidYMid meet">
<metadata>
Created by potrace 1.14, written by Peter Selinger 2001-2017
</metadata>
<g transform="translate(0.000000,472.000000) scale(0.100000,-0.100000)"
fill="#000000" stroke="none">
<path d="M3997 4274 c-1 -1 -47 -4 -101 -8 -103 -7 -261 -36 -331 -61 -22 -7
-80 -28 -130 -46 -102 -36 -310 -135 -339 -161 -11 -10 -26 -18 -33 -18 -8 0
-11 -4 -8 -10 3 -5 0 -10 -8 -10 -19 0 -151 -130 -208 -205 -85 -112 -157
-272 -174 -387 -4 -23 -9 -46 -11 -50 -3 -5 -7 -67 -10 -140 -2 -72 -6 -133
-8 -136 -3 -2 -1 -14 3 -26 4 -11 5 -34 1 -51 -3 -16 -3 -42 1 -57 4 -14 5
-29 2 -32 -3 -2 -6 -72 -7 -155 -1 -83 -5 -153 -8 -157 -9 -8 -26 9 -66 68
-38 55 -70 77 -83 57 -8 -13 -5 -57 7 -96 8 -28 -5 -29 -34 -3 -12 11 -24 20
-27 20 -4 0 -13 6 -20 13 -30 26 -44 37 -50 37 -4 0 -110 73 -140 97 -27 22
-113 73 -123 73 -5 0 -12 4 -14 8 -4 11 -158 85 -175 85 -7 0 -13 5 -13 10 0
6 -2 8 -6 5 -3 -3 -26 1 -52 9 -26 8 -58 17 -72 19 -14 3 -32 7 -40 9 -97 28
-345 19 -511 -19 -57 -13 -165 -49 -176 -58 -7 -6 -13 -8 -13 -5 0 5 -112 -50
-185 -91 -48 -27 -125 -85 -125 -94 0 -4 -5 -8 -12 -8 -10 0 -175 -163 -243
-240 -102 -116 -161 -233 -270 -536 -47 -131 -92 -255 -100 -274 -8 -19 -17
-44 -18 -55 -2 -11 -9 -33 -16 -49 -6 -16 -13 -36 -15 -45 -2 -9 -8 -27 -13
-41 -23 -54 20 -46 70 13 55 65 96 107 107 107 6 0 10 3 10 8 0 4 24 18 53 32
53 25 122 31 197 18 98 -17 152 -22 225 -21 67 1 130 7 130 13 0 1 8 3 17 5
145 28 382 158 608 333 58 45 127 99 153 120 27 20 58 45 70 54 12 10 27 21
32 25 6 5 35 24 65 44 118 77 170 109 170 103 0 -3 12 1 28 9 86 45 230 90
327 103 51 6 168 6 202 0 70 -13 80 -22 102 -88 12 -35 24 -79 27 -98 2 -19 8
-37 12 -40 4 -3 8 -12 8 -20 1 -8 13 -71 27 -140 38 -187 42 -239 42 -550 -1
-407 -8 -475 -96 -839 -21 -90 -41 -174 -43 -187 -3 -13 -7 -27 -10 -32 -3 -5
-7 -19 -10 -33 -3 -13 -13 -49 -22 -79 -34 -120 -37 -190 -8 -222 51 -55 191
-68 259 -24 23 15 72 76 61 76 -3 0 0 17 8 38 14 38 36 122 41 157 3 18 6 36
20 105 7 33 26 139 31 170 2 14 7 36 10 50 3 13 7 38 10 55 5 37 12 70 14 70
13 0 18 437 6 575 -12 158 -34 352 -41 380 -2 8 -7 31 -10 50 -3 19 -11 53
-17 75 -6 22 -12 45 -14 52 -5 25 -46 149 -60 180 -8 17 -14 34 -14 38 0 4
-25 64 -57 134 -63 142 -70 174 -42 212 10 15 19 30 19 33 0 23 94 113 167
159 84 54 275 147 333 162 14 3 34 10 45 14 21 9 308 99 335 105 50 12 241
106 289 143 9 6 54 40 101 75 47 35 92 70 101 78 8 8 41 39 72 68 31 29 57 57
57 63 0 5 4 9 10 9 17 0 136 186 145 228 2 10 13 42 24 72 22 62 47 178 55
260 3 30 8 66 11 80 5 25 45 111 45 96 0 -5 15 3 33 16 17 13 47 30 64 37 34
14 35 37 2 28 -11 -3 -19 -2 -19 2 0 4 -6 8 -12 8 -17 1 -83 13 -153 27 -69
14 -129 18 -283 20 -90 0 -164 1 -165 0z"/>
</g>
</svg>
